<?xml version="1.0" encoding="UTF-8" standalone="no"?>
<svg
   width="3.41333in"
   height="3.41333in"
   viewBox="0 0 1024 1024"
   version="1.1"
   id="svg1"
   sodipodi:docname="logo-smooth.svg"
   inkscape:version="1.4.2 (f4327f4, 2025-05-13)"
   xmlns:inkscape="http://www.inkscape.org/namespaces/inkscape"
   xmlns:sodipodi="http://sodipodi.sourceforge.net/DTD/sodipodi-0.dtd"
   xmlns="http://www.w3.org/2000/svg"
   xmlns:svg="http://www.w3.org/2000/svg">
  <defs
     id="defs1" />
  <sodipodi:namedview
     id="namedview1"
     pagecolor="#ffffff"
     bordercolor="#000000"
     borderopacity="0.25"
     inkscape:showpageshadow="2"
     inkscape:pageopacity="0.0"
     inkscape:pagecheckerboard="0"
     inkscape:deskcolor="#d1d1d1"
     inkscape:document-units="in"
     inkscape:zoom="3.5614048"
     inkscape:cx="163.83984"
     inkscape:cy="163.83984"
     inkscape:window-width="2560"
     inkscape:window-height="1369"
     inkscape:window-x="1912"
     inkscape:window-y="-8"
     inkscape:window-maximized="1"
     inkscape:current-layer="svg1" />
  <path
     d="m 448,610 c 2.74755,-1.13807 -1.13807,2.74755 0,0 z"
     id="path4" />
  <path
     d="m 614,392 c 2.74755,-1.13807 -1.13807,2.74755 0,0 z"
     id="path3" />
  <path
     d="m 446,261 c 13.66865,0.0933 27.36291,1.39143 41,0 10.56166,2.41265 20.91941,5.80839 32.33152,9.05842 12.49652,3.4071 23.47,13.1782 36.66848,16.94158 21.04987,14.4393 45.5262,26.02032 71,30 1.41528,1.88699 12.3887,2.65611 17.30877,2.79118 C 653.53918,319.52745 662.76959,319.26373 672,319 c -7.41509,-0.62995 17.37835,-3.47921 17.525,-2.3375 11.64177,3.32129 49.72432,-26.66669 31.8375,-3.17906 -17.26682,22.7487 -41.82588,42.3341 -68.67125,50.12031 -20.25912,8.68456 -38.93887,9.17144 -61.1536,10.39625 -44.19596,1.00384 -88.43677,-3.15042 -132.53765,0 15.30552,1.44223 -21.5673,0.89964 -18.63891,2.54047 -23.62397,2.2734 -46.53262,9.06183 -68.68267,20.43941 C 358.23439,406.97298 345.41657,418.45378 352,396 c 6.61906,-16.43659 8.59539,-39.29533 13.74125,-50.32398 2.8746,-13.12167 2.91998,-27.15161 8.9725,-39.21477 C 372.87588,276.81228 406.58723,270.24652 428,264 c 12.23625,0.44292 6.71405,-0.28542 18,-3 z"
     id="path2"
     style="fill:#ed2721;fill-opacity:1" />
  <path
     d="m 338,256 c 0,5.46671 0,6.93666 0,0 z"
     id="path1" />
  <path
     d="m 343,273 c -9.06297,-15.40126 2.38283,-36.45859 21.23646,-31.81 6.4261,3.12836 13.83744,11.59315 12.76354,19.65941 -2.20217,10.61292 -15.26036,16.15885 -14.90087,28.1391 -2.29039,11.88037 -3.82391,22.69227 -7.90913,33.92899 -2.19049,20.38116 -8.82703,38.09958 -13.00375,58.01875 -4.53435,20.80401 -8.71849,43.20869 -14.39219,64.18719 -7.44121,14.49871 -0.75861,22.31893 7.30311,5.89025 C 351.16433,431.95631 371.65844,417.30385 393,407 c 24.50442,-7.12174 46.80568,-13.03256 73,-13.94 31.65782,-0.49612 63.45686,1.10796 95,-1.06 23.19544,4.52238 47.98645,1.69069 71.68641,0.76963 11.49048,-3.372 28.16911,-3.61631 44.08821,-11.6945 14.7158,-5.25685 0.89829,6.84557 -3.47884,11.9997 C 648.76713,419.91979 624.77953,447.36559 599,473 c -49.21712,-2.11556 -98.71508,-0.48693 -148.05284,-1 -16.62919,0.64306 -33.56623,-1.36039 -49.98357,1.13297 -10.53781,9.80784 -11.64201,26.10186 -16.21176,40.20627 -1.30234,10.39223 -13.28791,28.87333 7.05707,23.74347 45.06042,-0.0525 90.12729,-0.12078 135.1911,-0.0827 -18.1028,21.90241 -39.4278,41.18768 -58.87703,62.01562 -14.76168,15.67448 -37.69764,8.22866 -56.75705,9.98438 -16.36918,0.53343 -33.01893,-1.27452 -49.14592,1.31 -8.89185,15.60256 -10.88473,45.59766 -16.38149,56.14341 -0.60414,14.54286 -4.57088,29.67191 -17.34115,38.30764 -28.56769,22.99381 -58.07885,44.29429 -87.72736,66.42145 -16.66091,11.4333 -3.72382,-9.21949 -3.51792,-17.75238 2.10022,-6.80183 3.54205,-20.67702 5.4019,-23.12215 C 241.92004,717.31729 253.04044,697.9007 252,681 c 5.08704,-16.20935 7.64122,-32.06104 12.3575,-48.94125 0.94022,-14.94004 6.92658,-29.21486 10.11453,-44.62643 4.01925,-18.27603 7.56524,-35.79203 12.04977,-53.85882 6.078,-25.30303 10.56941,-50.56896 16.8707,-75.52475 3.53353,-20.23537 9.14442,-43.36552 14.08875,-62.9675 2.0593,-18.43669 10.18186,-39.67902 12.72547,-59.01297 3.75911,-12.83535 4.41917,-28.6349 9.23234,-41.11125 C 341.7448,288.10836 344.08679,280.34829 343,273 Z"
     id="Selection"
     style="fill:#1c1d1a;fill-opacity:1" />
</svg>
